<svg width="22" height="21" viewBox="0 0 22 21" fill="none" xmlns="http://www.w3.org/2000/svg">
<path fill-rule="evenodd" clip-rule="evenodd" d="M1 8.42858V14.6186C1.00605 15.9385 1.53628 17.2019 2.47401 18.1308C3.41173 19.0597 4.68011 19.5779 6 19.5714H16C17.3199 19.5779 18.5883 19.0597 19.526 18.1308C20.4637 17.2019 20.994 15.9385 21 14.6186V8.42858C20.994 7.10869 20.4637 5.84528 19.526 4.91639C18.5883 3.98751 16.6056 3.8507 15.2857 3.85715C14.5925 3.7652 14.7145 2.93071 14.4443 2.28572C14.0013 1.48979 13.1609 0.997352 12.25 1.00001H9.75C8.8391 0.997352 7.99868 1.48979 7.55571 2.28572C7.28552 2.93071 7.40751 3.7652 6.71429 3.85715C5.39439 3.8507 3.41173 3.98751 2.47401 4.91639C1.53628 5.84528 1.00605 7.10869 1 8.42858Z" stroke="#A8A8A8" stroke-width="1.2" stroke-linecap="round" stroke-linejoin="round"/>
<path fill-rule="evenodd" clip-rule="evenodd" d="M11 14.619C9.29414 14.6025 7.92314 13.209 7.9344 11.503C7.94565 9.79708 9.33493 8.42177 11.0409 8.42775C12.7469 8.43374 14.1265 9.81875 14.1258 11.5247C14.1216 12.3496 13.7899 13.139 13.2038 13.7192C12.6176 14.2995 11.8249 14.6232 11 14.619Z" stroke="#A8A8A8" stroke-width="1.2" stroke-linecap="round" stroke-linejoin="round"/>
</svg>
