<svg width="220" height="48" viewBox="0 0 220 48" fill="none" xmlns="http://www.w3.org/2000/svg">
<path d="M185.031 14.0781H183.543V3.41406H185.031V14.0781ZM176.664 11.0664L178.832 11.0371V10.1348C178.441 10.0645 178.1 9.93945 177.807 9.75977C177.518 9.58008 177.295 9.35742 177.139 9.0918C176.982 8.82227 176.906 8.52344 176.91 8.19531C176.906 7.80078 177.016 7.45312 177.238 7.15234C177.461 6.84766 177.773 6.61133 178.176 6.44336C178.578 6.27539 179.039 6.19141 179.559 6.19141C180.082 6.19141 180.547 6.27539 180.953 6.44336C181.359 6.61133 181.676 6.84766 181.902 7.15234C182.129 7.45312 182.242 7.80078 182.242 8.19531C182.242 8.52344 182.162 8.82227 182.002 9.0918C181.846 9.35742 181.621 9.58008 181.328 9.75977C181.039 9.93945 180.699 10.0645 180.309 10.1348V10.9902C181.309 10.9395 182.191 10.8633 182.957 10.7617L183.062 11.8633C182.027 12.0391 180.965 12.1543 179.875 12.209C178.789 12.2598 177.602 12.2852 176.312 12.2852L176.113 11.0664H176.664ZM182.805 5.76953H176.324V4.59766H178.832V3.46094H180.32V4.59766H182.805V5.76953ZM179.559 7.32812C179.188 7.32812 178.889 7.40625 178.662 7.5625C178.436 7.71484 178.324 7.92578 178.328 8.19531C178.324 8.46875 178.434 8.68164 178.656 8.83398C178.883 8.98633 179.184 9.0625 179.559 9.0625C179.941 9.0625 180.246 8.98828 180.473 8.83984C180.699 8.6875 180.812 8.47266 180.812 8.19531C180.812 7.92188 180.697 7.70898 180.467 7.55664C180.24 7.4043 179.938 7.32812 179.559 7.32812ZM195.473 11.4766H193.973V10.6328H191.934V9.61328H193.973V3.42578H195.473V11.4766ZM195.707 13.8906H187.762V10.7031H189.25V9.28516C188.523 9.31641 187.633 9.33203 186.578 9.33203L186.402 8.14844C187.777 8.14062 189.014 8.11719 190.111 8.07812C191.209 8.03906 192.254 7.95703 193.246 7.83203L193.328 8.89844C192.516 9.03516 191.656 9.13672 190.75 9.20312V11.2305H189.25V12.6953H195.707V13.8906ZM189.871 3.78906C190.383 3.78516 190.84 3.86328 191.242 4.02344C191.645 4.18359 191.959 4.41016 192.186 4.70312C192.416 4.99219 192.531 5.32422 192.531 5.69922C192.531 6.07031 192.418 6.39844 192.191 6.68359C191.965 6.96875 191.648 7.18945 191.242 7.3457C190.84 7.49805 190.383 7.57422 189.871 7.57422C189.348 7.57422 188.883 7.49805 188.477 7.3457C188.07 7.18945 187.754 6.9707 187.527 6.68945C187.301 6.4043 187.188 6.07422 187.188 5.69922C187.188 5.32422 187.299 4.99219 187.521 4.70312C187.748 4.41016 188.064 4.18359 188.471 4.02344C188.881 3.86328 189.348 3.78516 189.871 3.78906ZM189.871 4.87891C189.484 4.87891 189.176 4.95117 188.945 5.0957C188.715 5.24023 188.602 5.44141 188.605 5.69922C188.602 5.95312 188.713 6.15039 188.939 6.29102C189.17 6.42773 189.48 6.49609 189.871 6.49609C190.238 6.49609 190.535 6.42578 190.762 6.28516C190.992 6.14453 191.109 5.94922 191.113 5.69922C191.109 5.44141 190.992 5.24023 190.762 5.0957C190.535 4.95117 190.238 4.87891 189.871 4.87891ZM209.324 9.50781H199.574V8.28906H209.324V9.50781ZM208.211 7.53906H200.758V3.69531H208.152V4.90234H202.246V6.35547H208.211V7.53906ZM204.426 10.1523C205.195 10.1523 205.857 10.2285 206.412 10.3809C206.967 10.5332 207.393 10.7559 207.689 11.0488C207.986 11.3418 208.137 11.6953 208.141 12.1094C208.137 12.5273 207.986 12.8828 207.689 13.1758C207.393 13.4727 206.967 13.6973 206.412 13.8496C205.857 14.002 205.195 14.0781 204.426 14.0781C203.648 14.0781 202.979 14.002 202.416 13.8496C201.857 13.6973 201.43 13.4727 201.133 13.1758C200.836 12.8828 200.688 12.5273 200.688 12.1094C200.688 11.6953 200.836 11.3418 201.133 11.0488C201.434 10.7559 201.863 10.5332 202.422 10.3809C202.98 10.2285 203.648 10.1523 204.426 10.1523ZM204.426 11.2891C203.688 11.2891 203.131 11.3594 202.756 11.5C202.385 11.6367 202.203 11.8398 202.211 12.1094C202.199 12.6641 202.938 12.9414 204.426 12.9414C205.891 12.9414 206.629 12.6641 206.641 12.1094C206.637 11.8398 206.447 11.6367 206.072 11.5C205.697 11.3594 205.148 11.2891 204.426 11.2891ZM219.695 10.3281H209.934V9.13281H214.07V8.35938H211.152V5.42969H217.012V4.77344H211.129V3.61328H218.512V6.50781H212.641V7.21094H218.711V8.35938H215.559V9.13281H219.695V10.3281ZM218.57 14.0312H217.059V12.1094H211.023V10.9375H218.57V14.0312Z" fill="#01D281" fill-opacity="0.5"/>
<g opacity="0.3">
<rect y="24" width="28" height="24" rx="12" fill="#01D281"/>
<path d="M15.5117 40H13.7422V33.1914H13.6953L11.75 34.4102V32.8516L13.8477 31.5156H15.5117V40Z" fill="white"/>
</g>
<path opacity="0.3" d="M32 36H44" stroke="#01D281" stroke-linecap="round" stroke-dasharray="3 3"/>
<g opacity="0.3">
<rect x="48" y="24" width="28" height="24" rx="12" fill="#01D281"/>
<path d="M58.9941 38.7227L62.041 35.9219C62.3418 35.6328 62.5742 35.3926 62.7383 35.2012C62.9062 35.0098 63.0352 34.8203 63.125 34.6328C63.2148 34.4414 63.2598 34.2383 63.2598 34.0234C63.2598 33.7773 63.2012 33.5625 63.084 33.3789C62.9707 33.1953 62.8105 33.0547 62.6035 32.957C62.4004 32.8555 62.1699 32.8047 61.9121 32.8047C61.5137 32.8047 61.1953 32.9238 60.957 33.1621C60.7188 33.3965 60.5996 33.7148 60.5996 34.1172H58.9238C58.9199 33.5703 59.043 33.0918 59.293 32.6816C59.5469 32.2715 59.9023 31.9551 60.3594 31.7324C60.8164 31.5098 61.3418 31.3984 61.9355 31.3984C62.5332 31.3984 63.0605 31.5059 63.5176 31.7207C63.9746 31.9316 64.3281 32.2266 64.5781 32.6055C64.832 32.9844 64.959 33.418 64.959 33.9062C64.959 34.2383 64.8945 34.5586 64.7656 34.8672C64.6367 35.1719 64.4121 35.5137 64.0918 35.8926C63.7754 36.2676 63.3262 36.7188 62.7441 37.2461L61.4551 38.5V38.5469H65.0762V40H59.0059L58.9941 38.7227Z" fill="white"/>
</g>
<path opacity="0.3" d="M80 36H92" stroke="#01D281" stroke-linecap="round" stroke-dasharray="3 3"/>
<rect x="96" y="24" width="28" height="24" rx="12" fill="#01D281"/>
<path d="M109.977 40.1172C109.363 40.1172 108.812 40.0117 108.324 39.8008C107.84 39.5859 107.457 39.2891 107.176 38.9102C106.898 38.5273 106.754 38.0938 106.742 37.6094H108.523C108.535 37.8164 108.605 38 108.734 38.1602C108.863 38.3203 109.037 38.4453 109.256 38.5352C109.475 38.6211 109.719 38.6641 109.988 38.6641C110.266 38.6641 110.514 38.6152 110.732 38.5176C110.955 38.416 111.127 38.2773 111.248 38.1016C111.373 37.9258 111.434 37.7266 111.43 37.5039C111.434 37.2734 111.369 37.0684 111.236 36.8887C111.107 36.709 110.922 36.5703 110.68 36.4727C110.438 36.3711 110.152 36.3203 109.824 36.3203H109.039V35.0195H109.824C110.098 35.0195 110.342 34.9727 110.557 34.8789C110.771 34.7852 110.939 34.6523 111.061 34.4805C111.182 34.3086 111.242 34.1133 111.242 33.8945C111.242 33.6797 111.189 33.4902 111.084 33.3262C110.982 33.1621 110.838 33.0352 110.65 32.9453C110.463 32.8516 110.246 32.8047 110 32.8047C109.75 32.8047 109.52 32.8496 109.309 32.9395C109.102 33.0254 108.934 33.1504 108.805 33.3145C108.68 33.4746 108.613 33.6602 108.605 33.8711H106.918C106.926 33.3906 107.064 32.9629 107.334 32.5879C107.604 32.2129 107.971 31.9219 108.436 31.7148C108.904 31.5039 109.426 31.3984 110 31.3984C110.578 31.3984 111.09 31.5039 111.535 31.7148C111.984 31.9219 112.332 32.209 112.578 32.5762C112.824 32.9395 112.945 33.3438 112.941 33.7891C112.945 34.0977 112.879 34.3789 112.742 34.6328C112.609 34.8828 112.42 35.0898 112.174 35.2539C111.932 35.418 111.652 35.5273 111.336 35.582V35.6523C111.746 35.7031 112.096 35.8164 112.385 35.9922C112.674 36.168 112.893 36.3965 113.041 36.6777C113.189 36.9551 113.262 37.2695 113.258 37.6211C113.262 38.0977 113.123 38.5273 112.842 38.9102C112.561 39.2891 112.17 39.5859 111.67 39.8008C111.17 40.0117 110.605 40.1172 109.977 40.1172Z" fill="white"/>
<path opacity="0.3" d="M128 36H140" stroke="#01D281" stroke-linecap="round" stroke-dasharray="3 3"/>
<g opacity="0.3">
<rect x="144" y="24" width="28" height="24" rx="12" fill="#01D281"/>
<path d="M154.584 37.1055L158.17 31.5156H160.385V37.082H161.463V38.5H160.385V40H158.709V38.5H154.584V37.1055ZM158.732 37.082V33.4492H158.65L156.365 37.0117V37.082H158.732Z" fill="white"/>
</g>
<path opacity="0.3" d="M176 36H188" stroke="#01D281" stroke-linecap="round" stroke-dasharray="3 3"/>
<g opacity="0.3">
<rect x="192" y="24" width="28" height="24" rx="12" fill="#01D281"/>
<path d="M206.023 40.1172C205.441 40.1172 204.916 40.0098 204.447 39.7949C203.982 39.5801 203.615 39.2832 203.346 38.9043C203.08 38.5215 202.941 38.0898 202.93 37.6094H204.641C204.652 37.8281 204.721 38.0215 204.846 38.1895C204.971 38.3574 205.137 38.4883 205.344 38.582C205.551 38.6758 205.777 38.7227 206.023 38.7227C206.312 38.7227 206.57 38.6602 206.797 38.5352C207.027 38.4062 207.205 38.2285 207.33 38.002C207.459 37.7715 207.523 37.5117 207.523 37.2227C207.523 36.9258 207.459 36.6621 207.33 36.4316C207.201 36.2012 207.02 36.0215 206.785 35.8926C206.555 35.7598 206.293 35.6914 206 35.6875C205.363 35.6875 204.918 35.9258 204.664 36.4023H203.07L203.527 31.5156H208.754V32.957H204.98L204.746 35.1016H204.816C204.977 34.8867 205.207 34.7148 205.508 34.5859C205.812 34.4531 206.148 34.3867 206.516 34.3867C207.031 34.3867 207.494 34.5059 207.904 34.7441C208.318 34.9824 208.643 35.3145 208.877 35.7402C209.115 36.1621 209.234 36.6406 209.234 37.1758C209.234 37.7422 209.1 38.248 208.83 38.6934C208.561 39.1387 208.182 39.4883 207.693 39.7422C207.209 39.9922 206.652 40.1172 206.023 40.1172Z" fill="white"/>
</g>
</svg>
