<svg width="40" height="44" viewBox="0 0 40 44" fill="none" xmlns="http://www.w3.org/2000/svg">
<path opacity="0.9" d="M7.11719 13.6878V25.831C7.11719 27.2867 8.29729 28.4668 9.75301 28.4668H30.3124C31.7682 28.4668 32.9483 27.2867 32.9483 25.831V13.6818C32.9483 12.9722 32.6621 12.2926 32.1546 11.7966L21.9177 1.79321C20.8963 0.79513 19.2658 0.791982 18.2406 1.78611L7.91812 11.7955C7.40615 12.2919 7.11719 12.9746 7.11719 13.6878Z" fill="url(#paint0_linear_5518_7102)"/>
<rect y="15.2881" width="20.0323" height="9.48893" rx="4.74447" fill="#F5F6F6"/>
<ellipse cx="4.74448" cy="20.0326" rx="4.74448" ry="4.74447" fill="url(#paint1_linear_5518_7102)"/>
<path d="M11.8793 36.0797H6.02986V34.7876H8.09318V34.0764H9.81595V34.7876H11.8793V36.0797ZM15.1445 35.9995V37.6422H14.1429V40.1963H12.4502V34.2267H14.1429V35.9995H15.1445ZM8.95457 39.6554C8.2067 39.6554 7.58236 39.5085 7.08156 39.2147C6.58075 38.9209 6.33035 38.5069 6.33035 37.9727C6.33035 37.6188 6.4472 37.315 6.68091 37.0612C6.91462 36.8075 7.2318 36.6172 7.63244 36.4903C8.03309 36.3568 8.47379 36.29 8.95457 36.29C9.43534 36.29 9.87271 36.3568 10.2667 36.4903C10.6673 36.6172 10.9845 36.8075 11.2182 37.0612C11.4586 37.315 11.5788 37.6188 11.5788 37.9727C11.5788 38.5069 11.3284 38.9209 10.8276 39.2147C10.3268 39.5085 9.70244 39.6554 8.95457 39.6554ZM8.95457 37.4919C8.64741 37.4919 8.40034 37.5353 8.21338 37.6221C8.03309 37.709 7.94294 37.8258 7.94294 37.9727C7.94294 38.1196 8.03309 38.2365 8.21338 38.3233C8.40034 38.4101 8.64741 38.4535 8.95457 38.4535C9.26173 38.4535 9.50545 38.4101 9.68574 38.3233C9.87271 38.2365 9.9662 38.1196 9.9662 37.9727C9.9662 37.8258 9.87271 37.709 9.68574 37.6221C9.50545 37.5353 9.26173 37.4919 8.95457 37.4919ZM11.4987 40.0861C11.4252 40.3131 11.3484 40.4968 11.2683 40.637L14.4434 41.4483L13.9526 42.8906L10.2266 41.7788C9.7592 42.1127 9.20163 42.3631 8.55392 42.53C7.91289 42.697 7.2318 42.7804 6.51064 42.7804V41.278C7.33196 41.278 8.05312 41.1411 8.67412 40.8674C9.29512 40.5936 9.68241 40.2263 9.83599 39.7656L11.4987 40.0861ZM24.4586 34.2267V42.7804H22.8761V34.2267H24.4586ZM20.6826 34.2667H22.2451V42.6302H20.6826V38.9443H19.7511C19.6042 39.6855 19.3538 40.3131 18.9999 40.8273C18.646 41.3415 18.2186 41.7254 17.7178 41.9792C17.217 42.2396 16.6661 42.3731 16.0651 42.3798V40.8674C16.6327 40.834 17.0968 40.6504 17.4574 40.3165C17.818 39.9826 18.065 39.5018 18.1986 38.8742H16.0651V37.3818H18.3088V35.9194H16.0651V34.427H19.8913V37.3417H20.6826V34.2667ZM34.4338 38.6438V39.9359H25.7799V38.6438H29.2655V38.2031H26.3108V34.2267H33.913V35.3385H27.9835V35.7191H33.7728V36.7107H27.9835V37.0913H34.0132V38.2031H30.9482V38.6438H34.4338ZM26.2407 40.3265H33.933V42.8806H32.2203V41.6186H26.2407V40.3265Z" fill="#01D281"/>
<defs>
<linearGradient id="paint0_linear_5518_7102" x1="32.9482" y1="14.8522" x2="-6.03317" y2="14.8522" gradientUnits="userSpaceOnUse">
<stop stop-color="#00E48C"/>
<stop offset="0.15729" stop-color="#17DF91"/>
<stop offset="0.364723" stop-color="#0CD185"/>
<stop offset="1" stop-color="#08AE6E"/>
</linearGradient>
<linearGradient id="paint1_linear_5518_7102" x1="9.48896" y1="20.0326" x2="0" y2="20.0326" gradientUnits="userSpaceOnUse">
<stop stop-color="#0EE692"/>
<stop offset="1" stop-color="#05965E"/>
</linearGradient>
</defs>
</svg>
