<svg width="20" height="20" viewBox="0 0 20 20" fill="none" xmlns="http://www.w3.org/2000/svg">
<path d="M6.14314 12.5714C6.37625 13.1786 6.75824 13.7176 7.25399 14.1387C8.83063 15.4621 11.1251 15.4788 12.7209 14.1785C13.2235 13.7649 13.6142 13.2318 13.8574 12.628" stroke="#9A9A9A" stroke-width="1.5" stroke-linecap="round" stroke-linejoin="round"/>
<path fill-rule="evenodd" clip-rule="evenodd" d="M19 10C19 14.9706 14.9706 19 10 19C5.02944 19 1 14.9706 1 10C1 5.02944 5.02944 1 10 1C12.3869 1 14.6761 1.94821 16.364 3.63604C18.0518 5.32387 19 7.61305 19 10Z" stroke="#9A9A9A" stroke-width="1.5" stroke-linecap="round" stroke-linejoin="round"/>
<path d="M6.14286 8.71443V7.42871" stroke="#9A9A9A" stroke-width="1.5" stroke-linecap="round"/>
<path d="M13.8577 8.71443V7.42871" stroke="#9A9A9A" stroke-width="1.5" stroke-linecap="round"/>
</svg>
