<svg width="24" height="24" viewBox="0 0 24 24" fill="none" xmlns="http://www.w3.org/2000/svg">
<path d="M2.11538 16.5512L9.47707 9.18948C9.59502 9.07152 9.64808 8.8989 9.62526 8.73366C8.58835 1.22455 14.4215 0.383349 17.7864 0.937152C17.9235 0.959728 17.9746 1.12705 17.8763 1.22535L14.1381 4.96358C14.0084 5.09328 13.9563 5.28151 14.0007 5.45944L14.8103 8.69783C14.8571 8.88491 15.0032 9.03099 15.1903 9.07776L18.4287 9.88735C18.6066 9.93184 18.7948 9.8797 18.9245 9.75001L22.6381 6.0364C22.7411 5.93346 22.9173 6.00105 22.9311 6.14598C23.6718 13.9713 18.268 14.695 15.1755 14.0301C14.9954 13.9913 14.8065 14.0421 14.6762 14.1724L7.20266 21.6459C6.70264 22.1459 6.10923 22.5677 5.40971 22.6712C4.39646 22.8212 3.04044 22.7301 2.00649 21.7946C0.925156 20.8162 0.887962 19.3333 1.10622 18.24C1.23753 17.5823 1.64111 17.0254 2.11538 16.5512Z" stroke="#565656" stroke-width="1.5"/>
<circle cx="4.6548" cy="19.0752" r="1.91457" fill="#565656"/>
</svg>
