<svg width="150" height="47" viewBox="0 0 150 47" fill="none" xmlns="http://www.w3.org/2000/svg">
<rect y="0.130127" width="150" height="46" rx="4" fill="#01D281" fill-opacity="0.4"/>
<path d="M22.8457 25.9485H20.3408L19.8135 29.1301H17.8447L18.3721 25.9485H16.6143L16.9482 23.9973H18.6885L19.0928 21.5364H17.3525L17.6689 19.5676H19.418L19.9365 16.4036H21.9053L21.3867 19.5676H23.8828L24.4014 16.4036H26.3701L25.8516 19.5676H27.6006L27.2666 21.5364H25.5264L25.1221 23.9973H26.8799L26.5459 25.9485H24.8057L24.2783 29.1301H22.3271L22.8457 25.9485ZM23.1621 23.9973L23.5664 21.5364H21.0615L20.6572 23.9973H23.1621ZM40.3975 17.9856H35.3701V25.0872C36.5947 25.0754 37.6553 25.0344 38.5518 24.9641C39.4541 24.8938 40.3564 24.7766 41.2588 24.6125L41.4873 26.4231C40.5146 26.6106 39.5391 26.7395 38.5605 26.8098C37.5879 26.8801 36.4248 26.9153 35.0713 26.9153H34.4033H33.1025V16.1575H40.3975V17.9856ZM45.8643 30.7825H43.6318V22.1165H39.6064V20.2883H43.6318V14.7512H45.8643V30.7825ZM64.7432 19.2336H66.9053V21.0793H64.7432V26.2122H62.4756V14.7512H64.7432V19.2336ZM60.3838 15.9465C60.3838 17.3762 60.0908 18.6653 59.5049 19.8137C58.9248 20.9563 58.0752 21.9348 56.9561 22.7493C55.8369 23.5637 54.4775 24.1965 52.8779 24.6477L51.9463 22.8723C53.71 22.3801 55.0986 21.6917 56.1123 20.8069C57.1318 19.9221 57.7324 18.9114 57.9141 17.7747H52.6494V15.9465H60.3838ZM65.2881 30.4661H54.3369V25.0344H56.6045V28.6731H65.2881V30.4661ZM81.0908 26.5286H78.8584V22.5911H76.8193V20.7454H78.8584V19.3567H76.8193V17.5637H78.8584V14.7512H81.0908V26.5286ZM76.5381 17.6868H75.2197V22.5471C75.6592 22.512 76.1807 22.4622 76.7842 22.3977L76.8721 24.0325C75.5361 24.2551 74.1006 24.4045 72.5654 24.4807C71.0303 24.5569 69.4541 24.595 67.8369 24.595L67.6084 22.7668L69.3135 22.7493V17.6868H68.0127V15.8938H76.5381V17.6868ZM81.4775 30.4661H70.4561V25.6497H72.7061V28.6731H81.4775V30.4661ZM73.0752 22.6614V17.6868H71.4756V22.7141L73.0752 22.6614ZM95.8564 19.6731H98.0186V21.5012H95.8564V26.7043H93.6064V14.7688H95.8564V19.6731ZM92.6572 18.2141H83.165V16.4387H86.8037V14.7336H89.0361V16.4387H92.6572V18.2141ZM87.9111 18.7766C88.6787 18.7766 89.3584 18.9055 89.9502 19.1633C90.5479 19.4211 91.0137 19.7844 91.3477 20.2532C91.6816 20.7219 91.8486 21.261 91.8486 21.8704C91.8486 22.4797 91.6816 23.0159 91.3477 23.4788C91.0195 23.9358 90.5566 24.2932 89.959 24.551C89.3613 24.803 88.6787 24.929 87.9111 24.929C87.1377 24.929 86.4492 24.803 85.8457 24.551C85.248 24.2932 84.7793 23.9358 84.4395 23.4788C84.1055 23.0159 83.9385 22.4797 83.9385 21.8704C83.9385 21.261 84.1055 20.7219 84.4395 20.2532C84.7793 19.7844 85.248 19.4211 85.8457 19.1633C86.4492 18.9055 87.1377 18.7766 87.9111 18.7766ZM87.9111 20.4817C87.3662 20.4934 86.9326 20.6194 86.6104 20.8596C86.2881 21.0999 86.1299 21.4368 86.1357 21.8704C86.1299 22.304 86.2852 22.6379 86.6016 22.8723C86.9238 23.1067 87.3604 23.2239 87.9111 23.2239C88.4619 23.2239 88.9014 23.1067 89.2295 22.8723C89.5576 22.6321 89.7217 22.2981 89.7217 21.8704C89.7217 21.4368 89.5576 21.0999 89.2295 20.8596C88.9014 20.6194 88.4619 20.4934 87.9111 20.4817ZM96.4365 30.4661H85.4854V25.7903H87.7178V28.6731H96.4365V30.4661ZM111.835 16.9133C111.835 17.7336 111.814 18.5042 111.773 19.2249C111.732 19.9397 111.63 20.7336 111.466 21.6067L109.269 21.3958C109.491 20.1711 109.614 18.9524 109.638 17.7395H103.608V15.9114H111.835V16.9133ZM107.862 22.6702C109.679 22.5881 111.255 22.4504 112.591 22.2571L112.714 23.8743C111.243 24.1438 109.711 24.3225 108.117 24.4104C106.523 24.4983 104.769 24.5481 102.853 24.5598L102.659 22.7668C103.931 22.7668 104.921 22.7581 105.63 22.7405V19.6028H107.862V22.6702ZM115.755 19.6204H117.688V21.5012H115.755V26.7219H113.452V14.7512H115.755V19.6204ZM116.247 30.4661H105.015V25.6497H107.265V28.6731H116.247V30.4661ZM131.839 30.7825H129.606V14.7512H131.839V30.7825ZM126.882 22.2571H121.608V25.1926C122.862 25.1868 124.031 25.1428 125.115 25.0608C126.205 24.9788 127.321 24.8469 128.464 24.6653L128.657 26.4758C127.415 26.6926 126.179 26.842 124.948 26.9241C123.718 27.0002 122.312 27.0383 120.729 27.0383H119.288V20.4817H124.597V17.8977H119.271V16.0872H126.882V22.2571Z" fill="white"/>
</svg>
