<svg width="20" height="20" viewBox="0 0 20 20" fill="none" xmlns="http://www.w3.org/2000/svg">
<path d="M10.0862 8.73584C10.0862 8.32122 9.75011 7.9851 9.33549 7.9851C8.92086 7.9851 8.58475 8.32122 8.58475 8.73584H9.33549H10.0862ZM9.33549 10.7664H8.58475C8.58475 11.181 8.92086 11.5172 9.33549 11.5172V10.7664ZM11.3361 11.5172C11.7507 11.5172 12.0868 11.181 12.0868 10.7664C12.0868 10.3518 11.7507 10.0157 11.3361 10.0157V10.7664V11.5172ZM14.5336 16.435C14.7742 16.7726 15.243 16.8513 15.5806 16.6106C15.9183 16.37 15.9969 15.9012 15.7563 15.5636L15.1449 15.9993L14.5336 16.435ZM13.9237 12.9921C13.6831 12.6545 13.2143 12.5758 12.8766 12.8165C12.539 13.0571 12.4603 13.5259 12.701 13.8636L13.3124 13.4278L13.9237 12.9921ZM14.2673 3.25164C13.8543 3.21542 13.4901 3.5209 13.4539 3.93394C13.4177 4.34697 13.7232 4.71117 14.1362 4.74738L14.2018 3.99951L14.2673 3.25164ZM15.2656 5.75901C15.3469 6.16559 15.7424 6.42927 16.149 6.34796C16.5556 6.26666 16.8192 5.87116 16.7379 5.46458L16.0018 5.6118L15.2656 5.75901ZM6.69136 13.4279L7.22962 12.9046L7.22828 12.9032L6.69136 13.4279ZM5.33622 10.0894L6.08699 10.0914L6.08694 10.0839L5.33622 10.0894ZM10.0025 5.3528L10.0082 4.602L9.99677 4.60208L10.0025 5.3528ZM14.6688 10.0894L13.918 10.0839L13.9181 10.095L14.6688 10.0894ZM10.0025 14.8268L10.0025 15.5776L10.0082 15.5775L10.0025 14.8268ZM7.30301 13.8634C7.54356 13.5257 7.46481 13.0569 7.12711 12.8164C6.7894 12.5758 6.32063 12.6546 6.08007 12.9923L6.69154 13.4278L7.30301 13.8634ZM4.24836 15.5637C4.0078 15.9014 4.08655 16.3702 4.42426 16.6107C4.76196 16.8513 5.23074 16.7725 5.47129 16.4348L4.85983 15.9993L4.24836 15.5637ZM5.86753 4.74738C6.28057 4.71117 6.58604 4.34697 6.54982 3.93394C6.51361 3.5209 6.14941 3.21542 5.73638 3.25164L5.80195 3.99951L5.86753 4.74738ZM3.26579 5.46458C3.18448 5.87116 3.44817 6.26666 3.85474 6.34796C4.26131 6.42927 4.65681 6.16559 4.73812 5.75901L4.00195 5.6118L3.26579 5.46458ZM9.33549 8.73584H8.58475V10.7664H9.33549H10.0862V8.73584H9.33549ZM9.33549 10.7664V11.5172H11.3361V10.7664V10.0157H9.33549V10.7664ZM15.1449 15.9993L15.7563 15.5636L13.9237 12.9921L13.3124 13.4278L12.701 13.8636L14.5336 16.435L15.1449 15.9993ZM14.2018 3.99951L14.1362 4.74738C14.6955 4.79643 15.1555 5.20844 15.2656 5.75901L16.0018 5.6118L16.7379 5.46458C16.4971 4.26021 15.4909 3.35892 14.2673 3.25164L14.2018 3.99951ZM6.69136 13.4279L7.22828 12.9032C6.49394 12.1518 6.08408 11.1421 6.08695 10.0914L5.33622 10.0894L4.58548 10.0873C4.58152 11.5316 5.14496 12.9197 6.15444 13.9527L6.69136 13.4279ZM5.33622 10.0894L6.08694 10.0839C6.07096 7.90203 7.82639 6.12017 10.0082 6.10352L10.0025 5.3528L9.99677 4.60208C6.9859 4.62505 4.56345 7.08398 4.5855 10.0949L5.33622 10.0894ZM10.0025 5.3528L9.99677 6.10352C12.1786 6.12017 13.934 7.90203 13.9181 10.0839L14.6688 10.0894L15.4195 10.0949C15.4415 7.08398 13.0191 4.62505 10.0082 4.60208L10.0025 5.3528ZM14.6688 10.0894L13.9181 10.095C13.9344 12.2771 12.1789 14.0594 9.99678 14.0761L10.0025 14.8268L10.0082 15.5775C13.0195 15.5546 15.4421 13.095 15.4195 10.0837L14.6688 10.0894ZM10.0025 14.8268L10.0025 14.0761C8.95794 14.0761 7.95779 13.6535 7.22962 12.9046L6.69136 13.4279L6.1531 13.9513C7.16397 14.991 8.5524 15.5775 10.0025 15.5775L10.0025 14.8268ZM6.69154 13.4278L6.08007 12.9923L4.24836 15.5637L4.85983 15.9993L5.47129 16.4348L7.30301 13.8634L6.69154 13.4278ZM5.80195 3.99951L5.73638 3.25164C4.51285 3.35892 3.50663 4.26021 3.26579 5.46458L4.00195 5.6118L4.73812 5.75901C4.84822 5.20844 5.3082 4.79643 5.86753 4.74738L5.80195 3.99951Z" fill="#5B82AD"/>
</svg>
