<svg width="134" height="47" viewBox="0 0 134 47" fill="none" xmlns="http://www.w3.org/2000/svg">
<rect y="0.130127" width="134" height="46" rx="4" fill="#01D281"/>
<path d="M22.624 25.9485H20.1191L19.5918 29.1301H17.623L18.1504 25.9485H16.3926L16.7266 23.9973H18.4668L18.8711 21.5364H17.1309L17.4473 19.5676H19.1963L19.7148 16.4036H21.6836L21.165 19.5676H23.6611L24.1797 16.4036H26.1484L25.6299 19.5676H27.3789L27.0449 21.5364H25.3047L24.9004 23.9973H26.6582L26.3242 25.9485H24.584L24.0566 29.1301H22.1055L22.624 25.9485ZM22.9404 23.9973L23.3447 21.5364H20.8398L20.4355 23.9973H22.9404ZM40.1758 17.9856H35.1484V25.0872C36.373 25.0754 37.4336 25.0344 38.3301 24.9641C39.2324 24.8938 40.1348 24.7766 41.0371 24.6125L41.2656 26.4231C40.293 26.6106 39.3174 26.7395 38.3389 26.8098C37.3662 26.8801 36.2031 26.9153 34.8496 26.9153H34.1816H32.8809V16.1575H40.1758V17.9856ZM45.6426 30.7825H43.4102V22.1165H39.3848V20.2883H43.4102V14.7512H45.6426V30.7825ZM64.5215 18.1086H66.6836V19.9543H64.5215V22.7317H62.2715V14.7512H64.5215V18.1086ZM59.9863 22.4153H52.3047V15.7532H59.9863V22.4153ZM54.5195 20.6575H57.7715V17.4934H54.5195V20.6575ZM55.4512 28.4973C56.3945 28.4387 57.2441 28.2864 58 28.0403L58.3164 29.7805C57.6953 30.0032 57.0684 30.1497 56.4355 30.22C55.8086 30.2903 55.0469 30.3254 54.1504 30.3254H53.2715V24.0676H55.4512V28.4973ZM65.8223 25.843H57.7715V24.2258H60.7246V23.0657H62.9043V24.2258H65.8223V25.843ZM61.7793 26.2473C62.3887 26.2473 62.9277 26.3381 63.3965 26.5198C63.8652 26.7014 64.2314 26.9622 64.4951 27.302C64.7588 27.6418 64.8906 28.0403 64.8906 28.4973C64.8906 28.9485 64.7588 29.3411 64.4951 29.675C64.2314 30.0149 63.8652 30.2756 63.3965 30.4573C62.9277 30.6389 62.3887 30.7297 61.7793 30.7297C61.1641 30.7297 60.6221 30.6389 60.1533 30.4573C59.6904 30.2756 59.3301 30.0149 59.0723 29.675C58.8203 29.3411 58.6973 28.9485 58.7031 28.4973C58.6973 28.0403 58.8203 27.6418 59.0723 27.302C59.3301 26.9622 59.6904 26.7014 60.1533 26.5198C60.6221 26.3381 61.1641 26.2473 61.7793 26.2473ZM61.7793 27.759C61.4512 27.759 61.1846 27.8235 60.9795 27.9524C60.7803 28.0754 60.6836 28.2571 60.6895 28.4973C60.6836 28.7375 60.7803 28.9221 60.9795 29.051C61.1846 29.1741 61.4512 29.2356 61.7793 29.2356C62.1074 29.2356 62.374 29.1741 62.5791 29.051C62.7842 28.9221 62.8867 28.7375 62.8867 28.4973C62.8867 28.2571 62.7842 28.0754 62.5791 27.9524C62.374 27.8235 62.1074 27.759 61.7793 27.759ZM81.9766 24.718H67.3867V22.925H81.9766V24.718ZM80.3242 30.4661H69.1445V25.7903H71.3945V28.6731H80.3242V30.4661ZM74.6816 15.2434C75.8418 15.2375 76.8584 15.3665 77.7314 15.6301C78.6104 15.8938 79.29 16.2717 79.7705 16.7639C80.251 17.2561 80.4941 17.8391 80.5 18.5129C80.4941 19.1868 80.251 19.7727 79.7705 20.2708C79.29 20.7688 78.6104 21.1526 77.7314 21.4221C76.8584 21.6858 75.8418 21.8176 74.6816 21.8176C73.5098 21.8176 72.4844 21.6858 71.6055 21.4221C70.7266 21.1526 70.0469 20.7688 69.5664 20.2708C69.0859 19.7727 68.8457 19.1868 68.8457 18.5129C68.8457 17.8391 69.0859 17.2561 69.5664 16.7639C70.0469 16.2717 70.7266 15.8938 71.6055 15.6301C72.4844 15.3665 73.5098 15.2375 74.6816 15.2434ZM74.6816 17.0012C73.5625 17.0129 72.6982 17.1477 72.0889 17.4055C71.4795 17.6633 71.1777 18.0325 71.1836 18.5129C71.1777 19.0051 71.4766 19.3772 72.0801 19.6292C72.6895 19.8811 73.5566 20.0071 74.6816 20.0071C75.8066 20.0071 76.6709 19.8811 77.2744 19.6292C77.8779 19.3772 78.1797 19.0051 78.1797 18.5129C78.1797 18.0325 77.875 17.6633 77.2656 17.4055C76.6562 17.1477 75.7949 17.0129 74.6816 17.0012ZM100.275 17.6516C100.275 18.5598 100.264 19.3538 100.24 20.0334C100.223 20.7073 100.164 21.4924 100.064 22.3889C99.9707 23.2795 99.8242 24.2493 99.625 25.2981L97.375 25.0696C97.6445 23.7336 97.8174 22.5325 97.8936 21.4661C97.9697 20.3997 98.0137 19.2161 98.0254 17.9153H88.6035V16.1399H100.275V17.6516ZM101.682 28.7961H87.0918V26.968H92.3125V21.4661H94.5449V26.968H101.682V28.7961ZM116.395 24.1379H114.268V20.2708H112.826V24.0676H110.717V15.05H112.826V18.4426H114.268V14.7688H116.395V24.1379ZM116.395 30.7473H114.162V26.5637H105.232V24.7532H116.395V30.7473ZM109.627 15.8586C109.627 17.8801 109.129 19.5764 108.133 20.9475C107.137 22.3186 105.602 23.4172 103.527 24.2434L102.473 22.5735C103.955 22.0286 105.092 21.3489 105.883 20.5344C106.68 19.7141 107.166 18.7532 107.342 17.6516H103.246V15.8586H109.627Z" fill="white"/>
</svg>
