<svg width="28" height="25" viewBox="0 0 28 25" fill="none" xmlns="http://www.w3.org/2000/svg">
<path fill-rule="evenodd" clip-rule="evenodd" d="M1.5 10.0357V17.7732C1.50756 19.4231 2.17035 21.0024 3.34251 22.1635C4.51466 23.3246 6.10013 23.9724 7.75 23.9643H20.25C21.8999 23.9724 23.4853 23.3246 24.6575 22.1635C25.8297 21.0024 26.4924 19.4231 26.5 17.7732V10.0357C26.4924 8.38586 25.8297 6.8066 24.6575 5.64549C23.4853 4.48439 21.007 4.31337 19.3571 4.32144C18.4906 4.2065 18.6431 3.16339 18.3054 2.35716C17.7516 1.36223 16.7011 0.74669 15.5625 0.750013H12.4375C11.2989 0.74669 10.2484 1.36223 9.69464 2.35716C9.3569 3.16339 9.50939 4.2065 8.64286 4.32144C6.99299 4.31337 4.51466 4.48439 3.34251 5.64549C2.17035 6.8066 1.50756 8.38586 1.5 10.0357Z" stroke="#DEDEDE" stroke-width="1.5" stroke-linecap="round" stroke-linejoin="round"/>
<path fill-rule="evenodd" clip-rule="evenodd" d="M14.0001 17.7743C11.8677 17.7536 10.154 16.0117 10.1681 13.8793C10.1821 11.7468 11.9187 10.0277 14.0512 10.0352C16.1836 10.0427 17.9081 11.7739 17.9073 13.9064C17.9021 14.9374 17.4875 15.9242 16.7548 16.6495C16.022 17.3749 15.0311 17.7795 14.0001 17.7743Z" stroke="#DEDEDE" stroke-width="1.5" stroke-linecap="round" stroke-linejoin="round"/>
</svg>
