<svg width="20" height="20" viewBox="0 0 20 20" fill="none" xmlns="http://www.w3.org/2000/svg">
<circle cx="9.99844" cy="9.6" r="9" fill="#01D281" stroke="white" stroke-width="1.2"/>
<path d="M5.80078 13.9203V11.2489L10.6092 6.44048L11.4565 5.59324C11.8737 5.17595 12.5503 5.17595 12.9676 5.59324L14.1278 6.75345C14.5451 7.17074 14.5451 7.8473 14.1278 8.2646L13.2806 9.11184L8.47214 13.9203H5.80078Z" fill="white"/>
<path d="M13.2806 9.11184L14.1278 8.2646C14.5451 7.8473 14.5451 7.17074 14.1278 6.75345L12.9676 5.59324C12.5503 5.17595 11.8737 5.17595 11.4565 5.59324L10.6092 6.44048M13.2806 9.11184L8.47214 13.9203H5.80078V11.2489L10.6092 6.44048M13.2806 9.11184L10.6092 6.44048" stroke="#01D281" stroke-width="0.996923" stroke-linecap="round" stroke-linejoin="round"/>
</svg>
