<svg width="322" height="115" viewBox="0 0 322 115" fill="none" xmlns="http://www.w3.org/2000/svg">
<rect y="0.130127" width="134" height="46" rx="4" fill="#01D281"/>
<path d="M22.624 25.9485H20.1191L19.5918 29.1301H17.623L18.1504 25.9485H16.3926L16.7266 23.9973H18.4668L18.8711 21.5364H17.1309L17.4473 19.5676H19.1963L19.7148 16.4036H21.6836L21.165 19.5676H23.6611L24.1797 16.4036H26.1484L25.6299 19.5676H27.3789L27.0449 21.5364H25.3047L24.9004 23.9973H26.6582L26.3242 25.9485H24.584L24.0566 29.1301H22.1055L22.624 25.9485ZM22.9404 23.9973L23.3447 21.5364H20.8398L20.4355 23.9973H22.9404ZM40.1758 17.9856H35.1484V25.0872C36.373 25.0754 37.4336 25.0344 38.3301 24.9641C39.2324 24.8938 40.1348 24.7766 41.0371 24.6125L41.2656 26.4231C40.293 26.6106 39.3174 26.7395 38.3389 26.8098C37.3662 26.8801 36.2031 26.9153 34.8496 26.9153H34.1816H32.8809V16.1575H40.1758V17.9856ZM45.6426 30.7825H43.4102V22.1165H39.3848V20.2883H43.4102V14.7512H45.6426V30.7825ZM64.5215 18.1086H66.6836V19.9543H64.5215V22.7317H62.2715V14.7512H64.5215V18.1086ZM59.9863 22.4153H52.3047V15.7532H59.9863V22.4153ZM54.5195 20.6575H57.7715V17.4934H54.5195V20.6575ZM55.4512 28.4973C56.3945 28.4387 57.2441 28.2864 58 28.0403L58.3164 29.7805C57.6953 30.0032 57.0684 30.1497 56.4355 30.22C55.8086 30.2903 55.0469 30.3254 54.1504 30.3254H53.2715V24.0676H55.4512V28.4973ZM65.8223 25.843H57.7715V24.2258H60.7246V23.0657H62.9043V24.2258H65.8223V25.843ZM61.7793 26.2473C62.3887 26.2473 62.9277 26.3381 63.3965 26.5198C63.8652 26.7014 64.2314 26.9622 64.4951 27.302C64.7588 27.6418 64.8906 28.0403 64.8906 28.4973C64.8906 28.9485 64.7588 29.3411 64.4951 29.675C64.2314 30.0149 63.8652 30.2756 63.3965 30.4573C62.9277 30.6389 62.3887 30.7297 61.7793 30.7297C61.1641 30.7297 60.6221 30.6389 60.1533 30.4573C59.6904 30.2756 59.3301 30.0149 59.0723 29.675C58.8203 29.3411 58.6973 28.9485 58.7031 28.4973C58.6973 28.0403 58.8203 27.6418 59.0723 27.302C59.3301 26.9622 59.6904 26.7014 60.1533 26.5198C60.6221 26.3381 61.1641 26.2473 61.7793 26.2473ZM61.7793 27.759C61.4512 27.759 61.1846 27.8235 60.9795 27.9524C60.7803 28.0754 60.6836 28.2571 60.6895 28.4973C60.6836 28.7375 60.7803 28.9221 60.9795 29.051C61.1846 29.1741 61.4512 29.2356 61.7793 29.2356C62.1074 29.2356 62.374 29.1741 62.5791 29.051C62.7842 28.9221 62.8867 28.7375 62.8867 28.4973C62.8867 28.2571 62.7842 28.0754 62.5791 27.9524C62.374 27.8235 62.1074 27.759 61.7793 27.759ZM81.9766 24.718H67.3867V22.925H81.9766V24.718ZM80.3242 30.4661H69.1445V25.7903H71.3945V28.6731H80.3242V30.4661ZM74.6816 15.2434C75.8418 15.2375 76.8584 15.3665 77.7314 15.6301C78.6104 15.8938 79.29 16.2717 79.7705 16.7639C80.251 17.2561 80.4941 17.8391 80.5 18.5129C80.4941 19.1868 80.251 19.7727 79.7705 20.2708C79.29 20.7688 78.6104 21.1526 77.7314 21.4221C76.8584 21.6858 75.8418 21.8176 74.6816 21.8176C73.5098 21.8176 72.4844 21.6858 71.6055 21.4221C70.7266 21.1526 70.0469 20.7688 69.5664 20.2708C69.0859 19.7727 68.8457 19.1868 68.8457 18.5129C68.8457 17.8391 69.0859 17.2561 69.5664 16.7639C70.0469 16.2717 70.7266 15.8938 71.6055 15.6301C72.4844 15.3665 73.5098 15.2375 74.6816 15.2434ZM74.6816 17.0012C73.5625 17.0129 72.6982 17.1477 72.0889 17.4055C71.4795 17.6633 71.1777 18.0325 71.1836 18.5129C71.1777 19.0051 71.4766 19.3772 72.0801 19.6292C72.6895 19.8811 73.5566 20.0071 74.6816 20.0071C75.8066 20.0071 76.6709 19.8811 77.2744 19.6292C77.8779 19.3772 78.1797 19.0051 78.1797 18.5129C78.1797 18.0325 77.875 17.6633 77.2656 17.4055C76.6562 17.1477 75.7949 17.0129 74.6816 17.0012ZM100.275 17.6516C100.275 18.5598 100.264 19.3538 100.24 20.0334C100.223 20.7073 100.164 21.4924 100.064 22.3889C99.9707 23.2795 99.8242 24.2493 99.625 25.2981L97.375 25.0696C97.6445 23.7336 97.8174 22.5325 97.8936 21.4661C97.9697 20.3997 98.0137 19.2161 98.0254 17.9153H88.6035V16.1399H100.275V17.6516ZM101.682 28.7961H87.0918V26.968H92.3125V21.4661H94.5449V26.968H101.682V28.7961ZM116.395 24.1379H114.268V20.2708H112.826V24.0676H110.717V15.05H112.826V18.4426H114.268V14.7688H116.395V24.1379ZM116.395 30.7473H114.162V26.5637H105.232V24.7532H116.395V30.7473ZM109.627 15.8586C109.627 17.8801 109.129 19.5764 108.133 20.9475C107.137 22.3186 105.602 23.4172 103.527 24.2434L102.473 22.5735C103.955 22.0286 105.092 21.3489 105.883 20.5344C106.68 19.7141 107.166 18.7532 107.342 17.6516H103.246V15.8586H109.627Z" fill="white"/>
<rect y="63.1301" width="150" height="46" rx="4" fill="#01D281" fill-opacity="0.4"/>
<path d="M22.8457 88.9485H20.3408L19.8135 92.1301H17.8447L18.3721 88.9485H16.6143L16.9482 86.9973H18.6885L19.0928 84.5364H17.3525L17.6689 82.5676H19.418L19.9365 79.4036H21.9053L21.3867 82.5676H23.8828L24.4014 79.4036H26.3701L25.8516 82.5676H27.6006L27.2666 84.5364H25.5264L25.1221 86.9973H26.8799L26.5459 88.9485H24.8057L24.2783 92.1301H22.3271L22.8457 88.9485ZM23.1621 86.9973L23.5664 84.5364H21.0615L20.6572 86.9973H23.1621ZM40.3975 80.9856H35.3701V88.0872C36.5947 88.0754 37.6553 88.0344 38.5518 87.9641C39.4541 87.8938 40.3564 87.7766 41.2588 87.6125L41.4873 89.4231C40.5146 89.6106 39.5391 89.7395 38.5605 89.8098C37.5879 89.8801 36.4248 89.9153 35.0713 89.9153H34.4033H33.1025V79.1575H40.3975V80.9856ZM45.8643 93.7825H43.6318V85.1165H39.6064V83.2883H43.6318V77.7512H45.8643V93.7825ZM64.7432 82.2336H66.9053V84.0793H64.7432V89.2122H62.4756V77.7512H64.7432V82.2336ZM60.3838 78.9465C60.3838 80.3762 60.0908 81.6653 59.5049 82.8137C58.9248 83.9563 58.0752 84.9348 56.9561 85.7493C55.8369 86.5637 54.4775 87.1965 52.8779 87.6477L51.9463 85.8723C53.71 85.3801 55.0986 84.6917 56.1123 83.8069C57.1318 82.9221 57.7324 81.9114 57.9141 80.7747H52.6494V78.9465H60.3838ZM65.2881 93.4661H54.3369V88.0344H56.6045V91.6731H65.2881V93.4661ZM81.0908 89.5286H78.8584V85.5911H76.8193V83.7454H78.8584V82.3567H76.8193V80.5637H78.8584V77.7512H81.0908V89.5286ZM76.5381 80.6868H75.2197V85.5471C75.6592 85.512 76.1807 85.4622 76.7842 85.3977L76.8721 87.0325C75.5361 87.2551 74.1006 87.4045 72.5654 87.4807C71.0303 87.5569 69.4541 87.595 67.8369 87.595L67.6084 85.7668L69.3135 85.7493V80.6868H68.0127V78.8938H76.5381V80.6868ZM81.4775 93.4661H70.4561V88.6497H72.7061V91.6731H81.4775V93.4661ZM73.0752 85.6614V80.6868H71.4756V85.7141L73.0752 85.6614ZM95.8564 82.6731H98.0186V84.5012H95.8564V89.7043H93.6064V77.7688H95.8564V82.6731ZM92.6572 81.2141H83.165V79.4387H86.8037V77.7336H89.0361V79.4387H92.6572V81.2141ZM87.9111 81.7766C88.6787 81.7766 89.3584 81.9055 89.9502 82.1633C90.5479 82.4211 91.0137 82.7844 91.3477 83.2532C91.6816 83.7219 91.8486 84.261 91.8486 84.8704C91.8486 85.4797 91.6816 86.0159 91.3477 86.4788C91.0195 86.9358 90.5566 87.2932 89.959 87.551C89.3613 87.803 88.6787 87.929 87.9111 87.929C87.1377 87.929 86.4492 87.803 85.8457 87.551C85.248 87.2932 84.7793 86.9358 84.4395 86.4788C84.1055 86.0159 83.9385 85.4797 83.9385 84.8704C83.9385 84.261 84.1055 83.7219 84.4395 83.2532C84.7793 82.7844 85.248 82.4211 85.8457 82.1633C86.4492 81.9055 87.1377 81.7766 87.9111 81.7766ZM87.9111 83.4817C87.3662 83.4934 86.9326 83.6194 86.6104 83.8596C86.2881 84.0999 86.1299 84.4368 86.1357 84.8704C86.1299 85.304 86.2852 85.6379 86.6016 85.8723C86.9238 86.1067 87.3604 86.2239 87.9111 86.2239C88.4619 86.2239 88.9014 86.1067 89.2295 85.8723C89.5576 85.6321 89.7217 85.2981 89.7217 84.8704C89.7217 84.4368 89.5576 84.0999 89.2295 83.8596C88.9014 83.6194 88.4619 83.4934 87.9111 83.4817ZM96.4365 93.4661H85.4854V88.7903H87.7178V91.6731H96.4365V93.4661ZM111.835 79.9133C111.835 80.7336 111.814 81.5042 111.773 82.2249C111.732 82.9397 111.63 83.7336 111.466 84.6067L109.269 84.3958C109.491 83.1711 109.614 81.9524 109.638 80.7395H103.608V78.9114H111.835V79.9133ZM107.862 85.6702C109.679 85.5881 111.255 85.4504 112.591 85.2571L112.714 86.8743C111.243 87.1438 109.711 87.3225 108.117 87.4104C106.523 87.4983 104.769 87.5481 102.853 87.5598L102.659 85.7668C103.931 85.7668 104.921 85.7581 105.63 85.7405V82.6028H107.862V85.6702ZM115.755 82.6204H117.688V84.5012H115.755V89.7219H113.452V77.7512H115.755V82.6204ZM116.247 93.4661H105.015V88.6497H107.265V91.6731H116.247V93.4661ZM131.839 93.7825H129.606V77.7512H131.839V93.7825ZM126.882 85.2571H121.608V88.1926C122.862 88.1868 124.031 88.1428 125.115 88.0608C126.205 87.9788 127.321 87.8469 128.464 87.6653L128.657 89.4758C127.415 89.6926 126.179 89.842 124.948 89.9241C123.718 90.0002 122.312 90.0383 120.729 90.0383H119.288V83.4817H124.597V80.8977H119.271V79.0872H126.882V85.2571Z" fill="white"/>
<rect x="126" y="27.1301" width="134" height="46" rx="4" fill="#01D281" fill-opacity="0.6"/>
<path d="M148.624 52.9485H146.119L145.592 56.1301H143.623L144.15 52.9485H142.393L142.727 50.9973H144.467L144.871 48.5364H143.131L143.447 46.5676H145.196L145.715 43.4036H147.684L147.165 46.5676H149.661L150.18 43.4036H152.148L151.63 46.5676H153.379L153.045 48.5364H151.305L150.9 50.9973H152.658L152.324 52.9485H150.584L150.057 56.1301H148.105L148.624 52.9485ZM148.94 50.9973L149.345 48.5364H146.84L146.436 50.9973H148.94ZM166.176 44.9856H161.148V52.0872C162.373 52.0754 163.434 52.0344 164.33 51.9641C165.232 51.8938 166.135 51.7766 167.037 51.6125L167.266 53.4231C166.293 53.6106 165.317 53.7395 164.339 53.8098C163.366 53.8801 162.203 53.9153 160.85 53.9153H160.182H158.881V43.1575H166.176V44.9856ZM171.643 57.7825H169.41V49.1165H165.385V47.2883H169.41V41.7512H171.643V57.7825ZM191.102 47.6575H192.719V49.5208H191.102V57.7473H188.887V41.7512H191.102V47.6575ZM179.799 46.9016H180.818V43.1926H182.646V54.0559H177.953V43.1926H179.799V46.9016ZM180.818 52.2102V48.677H179.799V52.2102H180.818ZM185.107 46.9016H186.145V43.1926H187.973V54.0559H183.297V43.1926H185.107V46.9016ZM186.145 52.2102V48.677H185.107V52.2102H186.145ZM208.012 52.1926H193.369V50.3997H208.012V52.1926ZM206.588 57.4661H195.215V53.0715H197.465V55.6731H206.588V57.4661ZM206.236 46.5325H197.43V47.675H206.535V49.3625H195.197V44.9329H203.986V43.843H195.162V42.1204H206.236V46.5325ZM226.961 57.7473H224.816V49.679H223.375V57.009H221.248V41.9797H223.375V47.8508H224.816V41.7512H226.961V57.7473ZM219.912 53.7219H213.549V43.4036H219.912V53.7219ZM215.641 51.9641H217.82V45.179H215.641V51.9641ZM238.141 45.1965H234.871C234.889 45.7532 235.041 46.2922 235.328 46.8137C235.621 47.3352 236.052 47.801 236.62 48.2112C237.194 48.6213 237.895 48.9348 238.721 49.1516L237.684 50.8743C236.781 50.6399 236.002 50.2795 235.346 49.7932C234.689 49.3069 234.171 48.7239 233.79 48.0442C233.421 48.8059 232.905 49.4622 232.243 50.0129C231.587 50.5579 230.793 50.9622 229.861 51.2258L228.789 49.4856C229.609 49.2571 230.301 48.9231 230.863 48.4836C231.426 48.0442 231.851 47.5403 232.138 46.9719C232.425 46.4036 232.58 45.8118 232.604 45.1965H229.334V43.4211H232.604V41.7688H234.889V43.4211H238.141V45.1965ZM242.043 51.4192H239.793V41.7688H242.043V51.4192ZM236.594 51.6653C237.719 51.6653 238.694 51.7854 239.521 52.0256C240.347 52.2659 240.979 52.6145 241.419 53.0715C241.864 53.5286 242.09 54.0735 242.096 54.7063C242.09 55.345 241.864 55.8928 241.419 56.3499C240.979 56.8069 240.347 57.1526 239.521 57.387C238.7 57.6272 237.725 57.7473 236.594 57.7473C235.457 57.7473 234.476 57.6272 233.649 57.387C232.829 57.1526 232.196 56.8069 231.751 56.3499C231.312 55.8928 231.092 55.345 231.092 54.7063C231.092 54.0735 231.312 53.5286 231.751 53.0715C232.196 52.6145 232.832 52.2659 233.658 52.0256C234.484 51.7854 235.463 51.6653 236.594 51.6653ZM236.594 53.4055C235.521 53.4055 234.71 53.5168 234.159 53.7395C233.614 53.9563 233.342 54.2786 233.342 54.7063C233.342 55.1458 233.614 55.4797 234.159 55.7083C234.71 55.9309 235.521 56.0422 236.594 56.0422C237.666 56.0422 238.48 55.9309 239.037 55.7083C239.6 55.4797 239.881 55.1458 239.881 54.7063C239.881 54.2786 239.603 53.9563 239.046 53.7395C238.489 53.5168 237.672 53.4055 236.594 53.4055Z" fill="white"/>
</svg>
