<svg width="100" height="110" viewBox="0 0 100 110" fill="none" xmlns="http://www.w3.org/2000/svg">
<g opacity="0.5">
<path opacity="0.9" d="M17.791 34.2195V64.5775C17.791 68.2168 20.7413 71.167 24.3806 71.167H75.7791C79.4184 71.167 82.3687 68.2168 82.3687 64.5775V34.2045C82.3687 32.4305 81.6534 30.7314 80.3846 29.4915L54.7922 4.48303C52.2387 1.98783 48.1626 1.97996 45.5995 4.46529L19.7933 29.4888C18.5134 30.7299 17.791 32.4366 17.791 34.2195Z" fill="#DEDEDE"/>
<rect y="38.2197" width="50.0806" height="23.7223" rx="11.8612" fill="#F5F6F6"/>
<ellipse cx="11.8612" cy="50.0809" rx="11.8612" ry="11.8612" fill="#DEDEDE"/>
<path d="M29.1992 89.1994H14.5756V85.9692H19.7339V84.1914H24.0409V85.9692H29.1992V89.1994ZM37.3623 88.9991V93.1057H34.8583V99.491H30.6265V84.567H34.8583V88.9991H37.3623ZM21.8874 98.1388C20.0177 98.1388 18.4569 97.7715 17.2049 97.037C15.9529 96.3025 15.3268 95.2675 15.3268 93.932C15.3268 93.0473 15.619 92.2877 16.2033 91.6534C16.7875 91.019 17.5805 90.5432 18.5821 90.2261C19.5837 89.8922 20.6855 89.7253 21.8874 89.7253C23.0893 89.7253 24.1828 89.8922 25.1677 90.2261C26.1693 90.5432 26.9622 91.019 27.5465 91.6534C28.1475 92.2877 28.448 93.0473 28.448 93.932C28.448 95.2675 27.8219 96.3025 26.5699 97.037C25.3179 97.7715 23.7571 98.1388 21.8874 98.1388ZM21.8874 92.7301C21.1195 92.7301 20.5018 92.8386 20.0344 93.0556C19.5837 93.2726 19.3583 93.5648 19.3583 93.932C19.3583 94.2993 19.5837 94.5914 20.0344 94.8084C20.5018 95.0254 21.1195 95.134 21.8874 95.134C22.6553 95.134 23.2646 95.0254 23.7153 94.8084C24.1828 94.5914 24.4165 94.2993 24.4165 93.932C24.4165 93.5648 24.1828 93.2726 23.7153 93.0556C23.2646 92.8386 22.6553 92.7301 21.8874 92.7301ZM28.2476 99.2155C28.064 99.7831 27.872 100.242 27.6717 100.593L35.6095 102.621L34.3825 106.227L25.0675 103.447C23.899 104.282 22.5051 104.908 20.8858 105.325C19.2832 105.743 17.5805 105.951 15.7776 105.951V102.195C17.8309 102.195 19.6338 101.853 21.1863 101.169C22.7388 100.484 23.707 99.5661 24.0909 98.4142L28.2476 99.2155ZM60.6476 84.567V105.951H56.6912V84.567H60.6476ZM51.2074 84.6671H55.1137V105.576H51.2074V96.3609H48.8787C48.5114 98.2139 47.8854 99.7831 47.0006 101.069C46.1159 102.354 45.0475 103.314 43.7955 103.948C42.5435 104.599 41.1663 104.933 39.6638 104.95V101.169C41.0828 101.085 42.243 100.626 43.1444 99.7914C44.0459 98.9568 44.6636 97.7548 44.9974 96.1856H39.6638V92.4546H45.2729V88.7988H39.6638V85.0678H49.2292V92.3545H51.2074V84.6671ZM85.5856 95.6097V98.8399H63.9508V95.6097H72.6648V94.5079H65.2779V84.567H84.2835V87.3464H69.4596V88.298H83.9329V90.7769H69.4596V91.7285H84.5339V94.5079H76.8716V95.6097H85.5856ZM65.1026 99.8165H84.3336V106.202H80.0517V103.047H65.1026V99.8165Z" fill="#DEDEDE"/>
</g>
</svg>
