<svg width="159" height="43" viewBox="0 0 159 43" fill="none" xmlns="http://www.w3.org/2000/svg">
<path opacity="0.9" d="M9.75195 20.3345V38.3591C9.75195 40.5136 11.4985 42.2601 13.6529 42.2601H44.8605C47.015 42.2601 48.7615 40.5136 48.7615 38.3591V20.3256C48.7615 19.2638 48.3287 18.2479 47.5629 17.5124L32.024 2.58569C30.5185 1.13946 28.1412 1.13488 26.6301 2.57528L10.9614 17.5109C10.189 18.2471 9.75195 19.2675 9.75195 20.3345Z" fill="url(#paint0_linear_5943_12414)"/>
<rect y="22.6252" width="29.6472" height="14.0434" rx="7.02169" fill="#075039"/>
<ellipse cx="7.02171" cy="29.6469" rx="7.02171" ry="7.02169" fill="white"/>
<path d="M84.3252 17.8055H65.3843V13.6216H72.0655V11.3188H77.644V13.6216H84.3252V17.8055ZM94.8984 17.546V22.865H91.6551V31.1355H86.1739V11.8053H91.6551V17.546H94.8984ZM74.8548 29.3841C72.4331 29.3841 70.4114 28.9084 68.7898 27.957C67.1681 27.0057 66.3573 25.6651 66.3573 23.9353C66.3573 22.7894 66.7357 21.8056 67.4924 20.9839C68.2492 20.1623 69.2763 19.546 70.5736 19.1352C71.8709 18.7028 73.298 18.4866 74.8548 18.4866C76.4115 18.4866 77.8278 18.7028 79.1035 19.1352C80.4008 19.546 81.4279 20.1623 82.1846 20.9839C82.963 21.8056 83.3522 22.7894 83.3522 23.9353C83.3522 25.6651 82.5414 27.0057 80.9197 27.957C79.2981 28.9084 77.2764 29.3841 74.8548 29.3841ZM74.8548 22.3785C73.8601 22.3785 73.0601 22.5191 72.4547 22.8002C71.8709 23.0813 71.579 23.4596 71.579 23.9353C71.579 24.411 71.8709 24.7894 72.4547 25.0705C73.0601 25.3516 73.8601 25.4921 74.8548 25.4921C75.8494 25.4921 76.6386 25.3516 77.2224 25.0705C77.8278 24.7894 78.1305 24.411 78.1305 23.9353C78.1305 23.4596 77.8278 23.0813 77.2224 22.8002C76.6386 22.5191 75.8494 22.3785 74.8548 22.3785ZM83.0928 30.7787C82.8549 31.5139 82.6063 32.1085 82.3468 32.5625L92.6281 35.1896L91.0389 39.86L78.9738 36.2599C77.4602 37.341 75.6548 38.1519 73.5574 38.6924C71.4817 39.233 69.2763 39.5032 66.9411 39.5032V34.6383C69.6006 34.6383 71.9358 34.195 73.9466 33.3085C75.9575 32.422 77.2116 31.2328 77.7089 29.7409L83.0928 30.7787ZM125.058 11.8053V39.5032H119.934V11.8053H125.058ZM112.831 11.9351H117.891V39.0167H112.831V27.0813H109.815C109.339 29.4814 108.528 31.5139 107.382 33.1788C106.236 34.8437 104.853 36.0869 103.231 36.9086C101.609 37.7518 99.8255 38.1843 97.8795 38.2059V33.3085C99.7174 33.2004 101.22 32.6058 102.388 31.5247C103.555 30.4436 104.355 28.8868 104.788 26.8543H97.8795V22.0218H105.145V17.2865H97.8795V12.454H110.269V21.892H112.831V11.9351ZM157.359 26.1084V30.2922H129.337V26.1084H140.624V24.6813H131.056V11.8053H155.673V15.4054H136.472V16.6379H155.218V19.8488H136.472V21.0812H155.997V24.6813H146.072V26.1084H157.359ZM130.829 31.5571H155.737V39.8276H150.191V35.741H130.829V31.5571Z" fill="white"/>
<defs>
<linearGradient id="paint0_linear_5943_12414" x1="48.7615" y1="22.0486" x2="-10.1074" y2="22.0486" gradientUnits="userSpaceOnUse">
<stop offset="0.192308" stop-color="white"/>
<stop offset="1" stop-color="white" stop-opacity="0.5"/>
</linearGradient>
</defs>
</svg>
