<svg width="134" height="47" viewBox="0 0 134 47" fill="none" xmlns="http://www.w3.org/2000/svg">
<rect y="0.130127" width="134" height="46" rx="4" fill="#01D281" fill-opacity="0.6"/>
<path d="M22.624 25.9485H20.1191L19.5918 29.1301H17.623L18.1504 25.9485H16.3926L16.7266 23.9973H18.4668L18.8711 21.5364H17.1309L17.4473 19.5676H19.1963L19.7148 16.4036H21.6836L21.165 19.5676H23.6611L24.1797 16.4036H26.1484L25.6299 19.5676H27.3789L27.0449 21.5364H25.3047L24.9004 23.9973H26.6582L26.3242 25.9485H24.584L24.0566 29.1301H22.1055L22.624 25.9485ZM22.9404 23.9973L23.3447 21.5364H20.8398L20.4355 23.9973H22.9404ZM40.1758 17.9856H35.1484V25.0872C36.373 25.0754 37.4336 25.0344 38.3301 24.9641C39.2324 24.8938 40.1348 24.7766 41.0371 24.6125L41.2656 26.4231C40.293 26.6106 39.3174 26.7395 38.3389 26.8098C37.3662 26.8801 36.2031 26.9153 34.8496 26.9153H34.1816H32.8809V16.1575H40.1758V17.9856ZM45.6426 30.7825H43.4102V22.1165H39.3848V20.2883H43.4102V14.7512H45.6426V30.7825ZM65.1016 20.6575H66.7188V22.5208H65.1016V30.7473H62.8867V14.7512H65.1016V20.6575ZM53.7988 19.9016H54.8184V16.1926H56.6465V27.0559H51.9531V16.1926H53.7988V19.9016ZM54.8184 25.2102V21.677H53.7988V25.2102H54.8184ZM59.1074 19.9016H60.1445V16.1926H61.9727V27.0559H57.2969V16.1926H59.1074V19.9016ZM60.1445 25.2102V21.677H59.1074V25.2102H60.1445ZM82.0117 25.1926H67.3691V23.3997H82.0117V25.1926ZM80.5879 30.4661H69.2148V26.0715H71.4648V28.6731H80.5879V30.4661ZM80.2363 19.5325H71.4297V20.675H80.5352V22.3625H69.1973V17.9329H77.9863V16.843H69.1621V15.1204H80.2363V19.5325ZM100.961 30.7473H98.8164V22.679H97.375V30.009H95.248V14.9797H97.375V20.8508H98.8164V14.7512H100.961V30.7473ZM93.9121 26.7219H87.5488V16.4036H93.9121V26.7219ZM89.6406 24.9641H91.8203V18.179H89.6406V24.9641ZM112.141 18.1965H108.871C108.889 18.7532 109.041 19.2922 109.328 19.8137C109.621 20.3352 110.052 20.801 110.62 21.2112C111.194 21.6213 111.895 21.9348 112.721 22.1516L111.684 23.8743C110.781 23.6399 110.002 23.2795 109.346 22.7932C108.689 22.3069 108.171 21.7239 107.79 21.0442C107.421 21.8059 106.905 22.4622 106.243 23.0129C105.587 23.5579 104.793 23.9622 103.861 24.2258L102.789 22.4856C103.609 22.2571 104.301 21.9231 104.863 21.4836C105.426 21.0442 105.851 20.5403 106.138 19.9719C106.425 19.4036 106.58 18.8118 106.604 18.1965H103.334V16.4211H106.604V14.7688H108.889V16.4211H112.141V18.1965ZM116.043 24.4192H113.793V14.7688H116.043V24.4192ZM110.594 24.6653C111.719 24.6653 112.694 24.7854 113.521 25.0256C114.347 25.2659 114.979 25.6145 115.419 26.0715C115.864 26.5286 116.09 27.0735 116.096 27.7063C116.09 28.345 115.864 28.8928 115.419 29.3499C114.979 29.8069 114.347 30.1526 113.521 30.387C112.7 30.6272 111.725 30.7473 110.594 30.7473C109.457 30.7473 108.476 30.6272 107.649 30.387C106.829 30.1526 106.196 29.8069 105.751 29.3499C105.312 28.8928 105.092 28.345 105.092 27.7063C105.092 27.0735 105.312 26.5286 105.751 26.0715C106.196 25.6145 106.832 25.2659 107.658 25.0256C108.484 24.7854 109.463 24.6653 110.594 24.6653ZM110.594 26.4055C109.521 26.4055 108.71 26.5168 108.159 26.7395C107.614 26.9563 107.342 27.2786 107.342 27.7063C107.342 28.1458 107.614 28.4797 108.159 28.7083C108.71 28.9309 109.521 29.0422 110.594 29.0422C111.666 29.0422 112.48 28.9309 113.037 28.7083C113.6 28.4797 113.881 28.1458 113.881 27.7063C113.881 27.2786 113.603 26.9563 113.046 26.7395C112.489 26.5168 111.672 26.4055 110.594 26.4055Z" fill="white"/>
</svg>
