<svg width="18" height="18" viewBox="0 0 18 18" fill="none" xmlns="http://www.w3.org/2000/svg">
<path d="M9 4.63867C9.88991 4.63867 10.6113 3.91726 10.6113 3.02734C10.6113 2.13743 9.88991 1.41602 9 1.41602C8.11009 1.41602 7.38867 2.13743 7.38867 3.02734C7.38867 3.91726 8.11009 4.63867 9 4.63867Z" fill="#9A9A9A"/>
<path d="M9 10.6113C9.88991 10.6113 10.6113 9.88991 10.6113 9C10.6113 8.11009 9.88991 7.38867 9 7.38867C8.11009 7.38867 7.38867 8.11009 7.38867 9C7.38867 9.88991 8.11009 10.6113 9 10.6113Z" fill="#9A9A9A"/>
<path d="M9 16.584C9.88991 16.584 10.6113 15.8626 10.6113 14.9727C10.6113 14.0827 9.88991 13.3613 9 13.3613C8.11009 13.3613 7.38867 14.0827 7.38867 14.9727C7.38867 15.8626 8.11009 16.584 9 16.584Z" fill="#9A9A9A"/>
</svg>
