<svg width="24" height="23" viewBox="0 0 24 23" fill="none" xmlns="http://www.w3.org/2000/svg">
<path d="M2 3.98687C2 2.75957 2.99492 1.76465 4.22222 1.76465H7.55556C8.78286 1.76465 9.77778 2.75957 9.77778 3.98687V7.3202C9.77778 8.5475 8.78286 9.54243 7.55556 9.54243H4.22222C2.99492 9.54243 2 8.5475 2 7.3202V3.98687Z" stroke="#565656" stroke-width="2.14286" stroke-linecap="round" stroke-linejoin="round"/>
<path d="M2 16.2091C2 14.9818 2.99492 13.9869 4.22222 13.9869H7.55556C8.78286 13.9869 9.77778 14.9818 9.77778 16.2091V19.5424C9.77778 20.7697 8.78286 21.7646 7.55556 21.7646H4.22222C2.99492 21.7646 2 20.7697 2 19.5424V16.2091Z" stroke="#565656" stroke-width="2.14286" stroke-linecap="round" stroke-linejoin="round"/>
<path d="M14.2222 3.98687C14.2222 2.75957 15.2171 1.76465 16.4444 1.76465H19.7778C21.0051 1.76465 22 2.75957 22 3.98687V7.3202C22 8.5475 21.0051 9.54243 19.7778 9.54243H16.4444C15.2171 9.54243 14.2222 8.5475 14.2222 7.3202V3.98687Z" stroke="#565656" stroke-width="2.14286" stroke-linecap="round" stroke-linejoin="round"/>
<path d="M14.2222 16.2091C14.2222 14.9818 15.2171 13.9869 16.4444 13.9869H19.7778C21.0051 13.9869 22 14.9818 22 16.2091V19.5424C22 20.7697 21.0051 21.7646 19.7778 21.7646H16.4444C15.2171 21.7646 14.2222 20.7697 14.2222 19.5424V16.2091Z" stroke="#565656" stroke-width="2.14286" stroke-linecap="round" stroke-linejoin="round"/>
</svg>
