<svg width="22" height="24" viewBox="0 0 22 24" fill="none" xmlns="http://www.w3.org/2000/svg">
<path fill-rule="evenodd" clip-rule="evenodd" d="M15.1279 14.7646H6.8714C4.44137 14.8732 2.28847 16.2091 1.31155 18.2146C0.133248 20.2965 2.48485 22.2645 5.21978 22.2645H16.7795C19.5161 22.2645 21.8677 20.2965 20.6877 18.2146C19.7108 16.2091 17.5579 14.8732 15.1279 14.7646Z" stroke="#565656" stroke-width="1.5" stroke-linecap="round" stroke-linejoin="round"/>
<path fill-rule="evenodd" clip-rule="evenodd" d="M15.9997 5.76502C15.9997 8.25023 13.7612 10.2649 10.9999 10.2649C8.23852 10.2649 6 8.25023 6 5.76502C6 3.2798 8.23852 1.26514 10.9999 1.26514C12.3259 1.26514 13.5977 1.73923 14.5353 2.58312C15.473 3.42701 15.9997 4.57158 15.9997 5.76502Z" stroke="#565656" stroke-width="1.5" stroke-linecap="round" stroke-linejoin="round"/>
</svg>
