<svg width="14" height="12" viewBox="0 0 14 12" fill="none" xmlns="http://www.w3.org/2000/svg">
<path d="M12.7268 9.44718L9.49111 6.24107C9.25144 6.00554 8.96274 5.88487 8.66859 5.88487C8.36901 5.88487 8.10211 5.99401 7.85152 6.2296L5.38939 8.55087L4.38167 7.59135C4.15289 7.37298 3.90232 7.26383 3.6463 7.26383C3.40118 7.26383 3.16695 7.36724 2.94362 7.58557L0.868239 9.56211C0.900923 10.6021 1.30401 11.1307 2.11565 11.1307H11.2451C12.2311 11.1307 12.7268 10.5503 12.7268 9.44718ZM2.15377 11.5329H11.5774C12.7213 11.5329 13.2878 10.9411 13.2878 9.75744V2.73624C13.2878 1.55263 12.7213 0.955078 11.5774 0.955078H2.15377C1.01531 0.955078 0.443359 1.55263 0.443359 2.73624V9.75744C0.443359 10.9411 1.01531 11.5329 2.15377 11.5329ZM2.16467 10.6078C1.61995 10.6078 1.32036 10.3033 1.32036 9.70576V2.78795C1.32036 2.1904 1.61995 1.88013 2.16467 1.88013H11.5665C12.1058 1.88013 12.4108 2.1904 12.4108 2.78795V9.70576C12.4108 10.3033 12.1058 10.6078 11.5665 10.6078H2.16467Z" fill="#EFEFEF"/>
<path d="M4.50429 6.29885C5.20698 6.29885 5.78438 5.68983 5.78438 4.94289C5.78438 4.2017 5.20698 3.58691 4.50429 3.58691C3.79615 3.58691 3.21875 4.2017 3.21875 4.94289C3.21875 5.68983 3.79615 6.29885 4.50429 6.29885Z" fill="#EFEFEF"/>
</svg>
