<svg width="21" height="26" viewBox="0 0 21 26" fill="none" xmlns="http://www.w3.org/2000/svg">
<path d="M7.77586 0.570278C7.23343 0.570278 6.79371 1.01 6.79371 1.55242C6.79371 2.09484 7.23343 2.53456 7.77586 2.53456V1.55242V0.570278ZM12.9873 2.53456C13.5297 2.53456 13.9694 2.09484 13.9694 1.55242C13.9694 1.01 13.5297 0.570278 12.9873 0.570278V1.55242V2.53456ZM8.29762 21.5519C8.29762 21.0095 7.8579 20.5698 7.31548 20.5698C6.77305 20.5698 6.33333 21.0095 6.33333 21.5519H7.31548H8.29762ZM14.4287 21.5519C14.4287 21.0095 13.989 20.5698 13.4466 20.5698C12.9042 20.5698 12.4645 21.0095 12.4645 21.5519H13.4466H14.4287ZM10.3816 4.59523L10.4122 3.61356C10.3922 3.61294 10.3721 3.61292 10.3521 3.61353L10.3816 4.59523ZM18.0363 11.9819L19.0152 11.9022C19.0137 11.8843 19.0118 11.8664 19.0093 11.8486L18.0363 11.9819ZM18.956 16.9819L18.0129 17.2563C18.0421 17.3567 18.0872 17.4517 18.1463 17.5378L18.956 16.9819ZM19.3131 20.1686L20.1784 20.6331C20.1975 20.5976 20.2143 20.561 20.2289 20.5235L19.3131 20.1686ZM17.1365 21.5469V22.5291L17.1497 22.5289L17.1365 21.5469ZM3.62355 21.5469L3.6104 22.529H3.62355V21.5469ZM1.447 20.1686L0.531508 20.5242C0.545994 20.5615 0.562745 20.5978 0.581667 20.6331L1.447 20.1686ZM1.79801 16.9869L2.60923 17.5405C2.66761 17.455 2.71209 17.3608 2.74103 17.2613L1.79801 16.9869ZM2.71768 11.9869L1.74455 11.8541C1.74214 11.8718 1.74022 11.8895 1.73878 11.9072L2.71768 11.9869ZM7.77586 1.55242V2.53456H12.9873V1.55242V0.570278H7.77586V1.55242ZM7.31548 21.5519H6.33333C6.33333 23.8562 8.06974 25.8674 10.381 25.8674V24.8852V23.9031C9.30621 23.9031 8.29762 22.9295 8.29762 21.5519H7.31548ZM10.381 24.8852V25.8674C12.6923 25.8674 14.4287 23.8562 14.4287 21.5519H13.4466H12.4645C12.4645 22.9295 11.4559 23.9031 10.381 23.9031V24.8852ZM10.3816 4.59523L10.3509 5.57689C13.6742 5.68068 16.5512 8.37647 17.0632 12.1151L18.0363 11.9819L19.0093 11.8486C18.3837 7.28023 14.8098 3.7509 10.4122 3.61356L10.3816 4.59523ZM18.0363 11.9819L17.0574 12.0616C17.201 13.8252 17.5213 15.5671 18.0129 17.2563L18.956 16.9819L19.899 16.7074C19.4446 15.1461 19.1481 13.5348 19.0152 11.9022L18.0363 11.9819ZM18.956 16.9819L18.1463 17.5378C18.5894 18.1832 18.6916 19.0542 18.3973 19.8137L19.3131 20.1686L20.2289 20.5235C20.7529 19.1711 20.5834 17.6169 19.7656 16.426L18.956 16.9819ZM19.3131 20.1686L18.4478 19.704C18.1503 20.2581 17.6361 20.558 17.1234 20.5648L17.1365 21.5469L17.1497 22.5289C18.4325 22.5118 19.5706 21.7653 20.1784 20.6331L19.3131 20.1686ZM17.1365 21.5469V20.5647H3.62355V21.5469V22.529H17.1365V21.5469ZM3.62355 21.5469L3.6367 20.5648C3.12402 20.558 2.60978 20.2581 2.31234 19.704L1.447 20.1686L0.581667 20.6331C1.18945 21.7653 2.32756 22.5118 3.6104 22.5289L3.62355 21.5469ZM1.447 20.1686L2.3625 19.8129C2.06822 19.0554 2.16861 18.1861 2.60923 17.5405L1.79801 16.9869L0.986792 16.4332C0.174039 17.6241 0.00742674 19.175 0.531508 20.5242L1.447 20.1686ZM1.79801 16.9869L2.74103 17.2613C3.23266 15.5721 3.55298 13.8302 3.69658 12.0666L2.71768 11.9869L1.73878 11.9072C1.60585 13.5398 1.3094 15.1511 0.854994 16.7124L1.79801 16.9869ZM2.71768 11.9869L3.69081 12.1196C4.20155 8.37586 7.08365 5.67696 10.4111 5.57693L10.3816 4.59523L10.3521 3.61353C5.94868 3.74591 2.36862 7.27963 1.74455 11.8541L2.71768 11.9869Z" fill="#323232"/>
</svg>
