<svg width="15" height="18" viewBox="0 0 15 18" fill="none" xmlns="http://www.w3.org/2000/svg">
<path fill-rule="evenodd" clip-rule="evenodd" d="M5.45486 0.77795H8.99233H5.45486ZM5.14236 14.3534C5.14236 15.603 6.074 16.616 7.22323 16.616C8.37246 16.616 9.30409 15.603 9.30409 14.3534M7.22359 2.84337C9.84399 2.92521 12.0334 5.03797 12.4195 7.85735C12.5134 9.01 12.7227 10.1481 13.0438 11.2513C13.4717 11.8745 13.564 12.6976 13.2862 13.4144C12.979 13.9867 12.4182 14.3418 11.8088 14.35H2.63633C2.02694 14.3418 1.46614 13.9867 1.15891 13.4144C0.881168 12.6994 0.971785 11.878 1.39717 11.2547C1.71825 10.1514 1.92758 9.01339 2.02143 7.86074C2.40658 5.03757 4.5998 2.92225 7.22359 2.84337Z" fill="#01D281"/>
<path d="M5.45486 0.111284C5.08667 0.111284 4.78819 0.40976 4.78819 0.77795C4.78819 1.14614 5.08667 1.44462 5.45486 1.44462V0.77795V0.111284ZM8.99233 1.44462C9.36052 1.44462 9.659 1.14614 9.659 0.77795C9.659 0.40976 9.36052 0.111284 8.99233 0.111284V0.77795V1.44462ZM5.80903 14.3534C5.80903 13.9852 5.51055 13.6867 5.14236 13.6867C4.77417 13.6867 4.47569 13.9852 4.47569 14.3534H5.14236H5.80903ZM9.97076 14.3534C9.97076 13.9852 9.67228 13.6867 9.30409 13.6867C8.9359 13.6867 8.63742 13.9852 8.63742 14.3534H9.30409H9.97076ZM7.22359 2.84337L7.24441 2.17703C7.23079 2.1766 7.21717 2.1766 7.20356 2.177L7.22359 2.84337ZM12.4195 7.85735L13.084 7.80325C13.083 7.7911 13.0817 7.77898 13.08 7.7669L12.4195 7.85735ZM13.0438 11.2513L12.4037 11.4376C12.4235 11.5057 12.454 11.5702 12.4942 11.6287L13.0438 11.2513ZM13.2862 13.4144L13.8736 13.7297C13.8865 13.7056 13.8979 13.6807 13.9078 13.6553L13.2862 13.4144ZM11.8088 14.35V15.0167L11.8177 15.0166L11.8088 14.35ZM2.63633 14.35L2.6274 15.0166H2.63633V14.35ZM1.15891 13.4144L0.537486 13.6558C0.547319 13.6811 0.558689 13.7058 0.571533 13.7297L1.15891 13.4144ZM1.39717 11.2547L1.94782 11.6305C1.98744 11.5724 2.01764 11.5085 2.03728 11.441L1.39717 11.2547ZM2.02143 7.86074L1.36088 7.77063C1.35925 7.7826 1.35794 7.7946 1.35696 7.80664L2.02143 7.86074ZM5.45486 0.77795V1.44462H8.99233V0.77795V0.111284H5.45486V0.77795ZM5.14236 14.3534H4.47569C4.47569 15.9175 5.65435 17.2826 7.22323 17.2826V16.616V15.9493C6.49365 15.9493 5.80903 15.2884 5.80903 14.3534H5.14236ZM7.22323 16.616V17.2826C8.79211 17.2826 9.97076 15.9175 9.97076 14.3534H9.30409H8.63742C8.63742 15.2884 7.95281 15.9493 7.22323 15.9493V16.616ZM7.22359 2.84337L7.20278 3.50971C9.45855 3.58016 11.4115 5.41003 11.759 7.9478L12.4195 7.85735L13.08 7.7669C12.6554 4.66592 10.2294 2.27025 7.24441 2.17703L7.22359 2.84337ZM12.4195 7.85735L11.755 7.91145C11.8525 9.10858 12.07 10.2909 12.4037 11.4376L13.0438 11.2513L13.6839 11.065C13.3754 10.0052 13.1742 8.91142 13.084 7.80325L12.4195 7.85735ZM13.0438 11.2513L12.4942 11.6287C12.795 12.0667 12.8644 12.6579 12.6646 13.1735L13.2862 13.4144L13.9078 13.6553C14.2636 12.7373 14.1484 11.6823 13.5934 10.8739L13.0438 11.2513ZM13.2862 13.4144L12.6988 13.099C12.4969 13.4751 12.1479 13.6787 11.7999 13.6833L11.8088 14.35L11.8177 15.0166C12.6885 15.0049 13.461 14.4982 13.8736 13.7297L13.2862 13.4144ZM11.8088 14.35V13.6833H2.63633V14.35V15.0166H11.8088V14.35ZM2.63633 14.35L2.64525 13.6833C2.29725 13.6787 1.94819 13.4751 1.74629 13.099L1.15891 13.4144L0.571533 13.7297C0.984092 14.4982 1.75663 15.0049 2.6274 15.0166L2.63633 14.35ZM1.15891 13.4144L1.78034 13.173C1.58059 12.6587 1.64873 12.0687 1.94782 11.6305L1.39717 11.2547L0.846527 10.8789C0.29484 11.6872 0.181746 12.74 0.537486 13.6558L1.15891 13.4144ZM1.39717 11.2547L2.03728 11.441C2.371 10.2943 2.58843 9.11197 2.6859 7.91484L2.02143 7.86074L1.35696 7.80664C1.26674 8.91481 1.06551 10.0086 0.757064 11.0684L1.39717 11.2547ZM2.02143 7.86074L2.68198 7.95086C3.02866 5.40962 4.985 3.57764 7.24363 3.50974L7.22359 2.84337L7.20356 2.177C4.2146 2.26686 1.78449 4.66551 1.36088 7.77063L2.02143 7.86074Z" fill="#01D281"/>
</svg>
