<svg width="24" height="24" viewBox="0 0 24 24" fill="none" xmlns="http://www.w3.org/2000/svg">
<path fill-rule="evenodd" clip-rule="evenodd" d="M17.6117 18.0107V5.79762C17.6157 5.32484 17.4317 4.86984 17.1002 4.53272C16.7687 4.19559 16.3169 4.00397 15.8441 4H8.7738C8.30102 4.00397 7.84919 4.19559 7.5177 4.53272C7.18621 4.86984 7.00223 5.32484 7.00623 5.79762V18.0107C6.96421 18.3633 7.13735 18.7068 7.44579 18.8828C7.75424 19.0589 8.13807 19.0331 8.42029 18.8176L11.7787 15.9179C12.0814 15.6446 12.5418 15.6446 12.8445 15.9179L16.1976 18.8185C16.48 19.0342 16.864 19.0599 17.1726 18.8836C17.4811 18.7074 17.6541 18.3635 17.6117 18.0107Z" fill="#DEDEDE"/>
</svg>
