<svg width="66" height="66" viewBox="0 0 66 66" fill="none" xmlns="http://www.w3.org/2000/svg">
<rect width="66" height="66" rx="7.55555" fill="black" fill-opacity="0.3"/>
<path d="M39.2834 36.4921L36.0477 33.286C35.8081 33.0505 35.5194 32.9298 35.2252 32.9298C34.9257 32.9298 34.6588 33.0389 34.4082 33.2745L31.946 35.5958L30.9383 34.6363C30.7095 34.4179 30.459 34.3088 30.2029 34.3088C29.9578 34.3088 29.7236 34.4122 29.5003 34.6305L27.4249 36.607C27.4576 37.647 27.8607 38.1756 28.6723 38.1756H37.8018C38.7877 38.1756 39.2834 37.5953 39.2834 36.4921ZM28.7104 38.5778H38.134C39.278 38.5778 39.8444 37.986 39.8444 36.8024V29.7812C39.8444 28.5976 39.278 28 38.134 28H28.7104C27.572 28 27 28.5976 27 29.7812V36.8024C27 37.986 27.572 38.5778 28.7104 38.5778ZM28.7213 37.6527C28.1766 37.6527 27.877 37.3482 27.877 36.7507V29.8329C27.877 29.2353 28.1766 28.9251 28.7213 28.9251H38.1231C38.6624 28.9251 38.9675 29.2353 38.9675 29.8329V36.7507C38.9675 37.3482 38.6624 37.6527 38.1231 37.6527H28.7213Z" fill="#EFEFEF"/>
<path d="M31.0609 33.3438C31.7636 33.3438 32.341 32.7348 32.341 31.9878C32.341 31.2466 31.7636 30.6318 31.0609 30.6318C30.3528 30.6318 29.7754 31.2466 29.7754 31.9878C29.7754 32.7348 30.3528 33.3438 31.0609 33.3438Z" fill="#EFEFEF"/>
</svg>
